<svg xmlns="http://www.w3.org/2000/svg" version="1.1" xmlns:xlink="http://www.w3.org/1999/xlink" xmlns:svgjs="http://svgjs.com/svgjs" width="1600" height="900" preserveAspectRatio="none" viewBox="0 0 1600 900"><g mask="url(&quot;#SvgjsMask1021&quot;)" fill="none"><rect width="1600" height="900" x="0" y="0" fill="rgba(0, 0, 0, 1)"></rect><path d="M727.98 161.22L812.55 161.22L812.55 241.66L727.98 241.66z" fill="rgba(0, 215, 125, 1)"></path><path d="M972.36 439.55a34.67 34.67 0 1 0 37.98 58.02z" fill="rgba(124, 1, 255, 1)"></path><path d="M737.83 724.91L805.57 724.91L805.57 803.19L737.83 803.19z" fill="rgba(0, 215, 125, 1)"></path><path d="M456.54 791.35 a89.31 89.31 0 1 0 178.62 0 a89.31 89.31 0 1 0 -178.62 0z" fill="rgba(0, 215, 125, 1)"></path><path d="M1454.82 560.74a54.6 54.6 0 1 0-84.61 69.03z" stroke="rgba(124, 1, 255, 1)"></path><path d="M1481.94 848.57a67.41 67.41 0 1 0 29.97-131.45z" stroke="rgba(0, 215, 125, 1)"></path><path d="M110.23 145.6L130.42 145.6L130.42 180.23L110.23 180.23z" fill="rgba(0, 215, 125, 1)"></path><path d="M912.41 61.71a27.22 27.22 0 1 0-52.28 15.18z" stroke="rgba(124, 1, 255, 1)"></path><path d="M1394.97 139.38L1436.99 139.38L1436.99 210.37L1394.97 210.37z" fill="rgba(124, 1, 255, 1)"></path><path d="M798.12 36.77a45.87 45.87 0 1 0-61.88 67.73z" stroke="rgba(0, 215, 125, 1)"></path><path d="M123.92 214.6L170.75 214.6L170.75 261.43L123.92 261.43z" stroke="rgba(124, 1, 255, 1)"></path><path d="M95.58 718.75 a31.01 31.01 0 1 0 62.02 0 a31.01 31.01 0 1 0 -62.02 0z" fill="rgba(124, 1, 255, 1)"></path><path d="M398.19 754.43L465.93 754.43L465.93 804.75L398.19 804.75z" stroke="rgba(124, 1, 255, 1)"></path><path d="M574.87 464.27a2.23 2.23 0 1 0-2.49-3.69z" fill="rgba(0, 215, 125, 1)"></path><path d="M1497.78 154.01a23.62 23.62 0 1 0 27.21-38.62z" stroke="rgba(0, 215, 125, 1)"></path><path d="M457.55 467.65L523.97 467.65L523.97 485.5L457.55 485.5z" stroke="rgba(0, 215, 125, 1)"></path><path d="M386.61 237.18a5.27 5.27 0 1 0 10.43 1.52z" fill="rgba(0, 215, 125, 1)"></path><path d="M284.04 563.82 a59.57 59.57 0 1 0 119.14 0 a59.57 59.57 0 1 0 -119.14 0z" stroke="rgba(124, 1, 255, 1)"></path><path d="M979.73 629.64L997.56 629.64L997.56 647.47L979.73 647.47z" stroke="rgba(0, 215, 125, 1)"></path><path d="M729.5 631.82L775.82 631.82L775.82 678.14L729.5 678.14z" stroke="rgba(0, 215, 125, 1)"></path><path d="M621.11 893.38L679.59 893.38L679.59 944.04L621.11 944.04z" stroke="rgba(0, 215, 125, 1)"></path><path d="M66.32 598.16a89.81 89.81 0 1 0-13.23-179.13z" fill="rgba(124, 1, 255, 1)"></path><path d="M1285.01 393.85L1342.64 393.85L1342.64 451.48L1285.01 451.48z" stroke="rgba(0, 215, 125, 1)"></path></g><defs><mask id="SvgjsMask1021"><rect width="1600" height="900" fill="#ffffff"></rect></mask></defs></svg>