<svg xmlns="http://www.w3.org/2000/svg" version="1.1" xmlns:xlink="http://www.w3.org/1999/xlink" xmlns:svgjs="http://svgjs.com/svgjs" width="1600" height="900" preserveAspectRatio="none" viewBox="0 0 1600 900"><g mask="url(&quot;#SvgjsMask1029&quot;)" fill="none"><rect width="1600" height="900" x="0" y="0" fill="rgba(0, 0, 0, 1)"></rect><path d="M656 205L655 709" stroke-width="10" stroke="url(#SvgjsLinearGradient1030)" stroke-linecap="round" class="Up"></path><path d="M1218 737L1217 1360" stroke-width="6" stroke="url(#SvgjsLinearGradient1031)" stroke-linecap="round" class="Up"></path><path d="M1209 722L1208 185" stroke-width="8" stroke="url(#SvgjsLinearGradient1032)" stroke-linecap="round" class="Down"></path><path d="M165 544L164 1079" stroke-width="6" stroke="url(#SvgjsLinearGradient1032)" stroke-linecap="round" class="Down"></path><path d="M958 824L957 346" stroke-width="8" stroke="url(#SvgjsLinearGradient1030)" stroke-linecap="round" class="Up"></path><path d="M1436 90L1435 -355" stroke-width="10" stroke="url(#SvgjsLinearGradient1031)" stroke-linecap="round" class="Up"></path><path d="M1462 1L1461 641" stroke-width="10" stroke="url(#SvgjsLinearGradient1031)" stroke-linecap="round" class="Up"></path><path d="M175 166L174 654" stroke-width="10" stroke="url(#SvgjsLinearGradient1031)" stroke-linecap="round" class="Up"></path><path d="M100 252L99 -390" stroke-width="10" stroke="url(#SvgjsLinearGradient1030)" stroke-linecap="round" class="Up"></path><path d="M1473 779L1472 533" stroke-width="10" stroke="url(#SvgjsLinearGradient1030)" stroke-linecap="round" class="Up"></path><path d="M205 282L204 -221" stroke-width="10" stroke="url(#SvgjsLinearGradient1033)" stroke-linecap="round" class="Down"></path><path d="M1504 619L1503 988" stroke-width="10" stroke="url(#SvgjsLinearGradient1031)" stroke-linecap="round" class="Up"></path><path d="M1325 723L1324 1349" stroke-width="8" stroke="url(#SvgjsLinearGradient1030)" stroke-linecap="round" class="Up"></path><path d="M198 596L197 114" stroke-width="10" stroke="url(#SvgjsLinearGradient1032)" stroke-linecap="round" class="Down"></path><path d="M1315 296L1314 584" stroke-width="10" stroke="url(#SvgjsLinearGradient1031)" stroke-linecap="round" class="Up"></path><path d="M651 106L650 346" stroke-width="8" stroke="url(#SvgjsLinearGradient1032)" stroke-linecap="round" class="Down"></path><path d="M881 839L880 401" stroke-width="6" stroke="url(#SvgjsLinearGradient1033)" stroke-linecap="round" class="Down"></path><path d="M475 425L474 683" stroke-width="8" stroke="url(#SvgjsLinearGradient1030)" stroke-linecap="round" class="Up"></path><path d="M1300 776L1299 468" stroke-width="10" stroke="url(#SvgjsLinearGradient1032)" stroke-linecap="round" class="Down"></path><path d="M1143 521L1142 936" stroke-width="8" stroke="url(#SvgjsLinearGradient1032)" stroke-linecap="round" class="Down"></path><path d="M1444 136L1443 -128" stroke-width="10" stroke="url(#SvgjsLinearGradient1033)" stroke-linecap="round" class="Down"></path><path d="M223 105L222 770" stroke-width="8" stroke="url(#SvgjsLinearGradient1031)" stroke-linecap="round" class="Up"></path><path d="M1589 455L1588 -51" stroke-width="6" stroke="url(#SvgjsLinearGradient1032)" stroke-linecap="round" class="Down"></path><path d="M1269 699L1268 164" stroke-width="8" stroke="url(#SvgjsLinearGradient1030)" stroke-linecap="round" class="Up"></path><path d="M816 123L815 -388" stroke-width="6" stroke="url(#SvgjsLinearGradient1032)" stroke-linecap="round" class="Down"></path><path d="M519 697L518 1274" stroke-width="6" stroke="url(#SvgjsLinearGradient1031)" stroke-linecap="round" class="Up"></path><path d="M100 857L99 1378" stroke-width="10" stroke="url(#SvgjsLinearGradient1031)" stroke-linecap="round" class="Up"></path><path d="M458 180L457 -455" stroke-width="8" stroke="url(#SvgjsLinearGradient1032)" stroke-linecap="round" class="Down"></path><path d="M1519 381L1518 15" stroke-width="10" stroke="url(#SvgjsLinearGradient1031)" stroke-linecap="round" class="Up"></path><path d="M92 258L91 14" stroke-width="10" stroke="url(#SvgjsLinearGradient1032)" stroke-linecap="round" class="Down"></path><path d="M1214 116L1213 -158" stroke-width="6" stroke="url(#SvgjsLinearGradient1031)" stroke-linecap="round" class="Up"></path><path d="M847 222L846 572" stroke-width="6" stroke="url(#SvgjsLinearGradient1031)" stroke-linecap="round" class="Up"></path><path d="M980 784L979 1232" stroke-width="8" stroke="url(#SvgjsLinearGradient1033)" stroke-linecap="round" class="Down"></path><path d="M1406 220L1405 -392" stroke-width="8" stroke="url(#SvgjsLinearGradient1033)" stroke-linecap="round" class="Down"></path><path d="M449 288L448 954" stroke-width="8" stroke="url(#SvgjsLinearGradient1032)" stroke-linecap="round" class="Down"></path><path d="M836 691L835 1243" stroke-width="6" stroke="url(#SvgjsLinearGradient1033)" stroke-linecap="round" class="Down"></path><path d="M986 278L985 856" stroke-width="8" stroke="url(#SvgjsLinearGradient1032)" stroke-linecap="round" class="Down"></path><path d="M922 834L921 386" stroke-width="10" stroke="url(#SvgjsLinearGradient1032)" stroke-linecap="round" class="Down"></path><path d="M114 393L113 1004" stroke-width="10" stroke="url(#SvgjsLinearGradient1032)" stroke-linecap="round" class="Down"></path><path d="M1537 126L1536 -196" stroke-width="8" stroke="url(#SvgjsLinearGradient1033)" stroke-linecap="round" class="Down"></path></g><defs><mask id="SvgjsMask1029"><rect width="1600" height="900" fill="#ffffff"></rect></mask><linearGradient x1="0%" y1="100%" x2="0%" y2="0%" id="SvgjsLinearGradient1030"><stop stop-color="rgba(0, 215, 125, 0)" offset="0"></stop><stop stop-color="rgba(0, 215, 125, 1)" offset="1"></stop></linearGradient><linearGradient x1="0%" y1="100%" x2="0%" y2="0%" id="SvgjsLinearGradient1031"><stop stop-color="rgba(124, 1, 255, 0)" offset="0"></stop><stop stop-color="rgba(124, 1, 255, 1)" offset="1"></stop></linearGradient><linearGradient x1="0%" y1="0%" x2="0%" y2="100%" id="SvgjsLinearGradient1032"><stop stop-color="rgba(0, 215, 125, 0)" offset="0"></stop><stop stop-color="rgba(0, 215, 125, 1)" offset="1"></stop></linearGradient><linearGradient x1="0%" y1="0%" x2="0%" y2="100%" id="SvgjsLinearGradient1033"><stop stop-color="rgba(124, 1, 255, 0)" offset="0"></stop><stop stop-color="rgba(124, 1, 255, 1)" offset="1"></stop></linearGradient></defs></svg>