<svg xmlns="http://www.w3.org/2000/svg" version="1.1" xmlns:xlink="http://www.w3.org/1999/xlink" xmlns:svgjs="http://svgjs.com/svgjs" width="1600" height="900" preserveAspectRatio="none" viewBox="0 0 1600 900"><g mask="url(&quot;#SvgjsMask1033&quot;)" fill="none"><rect width="1600" height="900" x="0" y="0" fill="rgba(0, 0, 0, 1)"></rect><path d="M21 900L921 0L1176 0L276 900z" fill="url(#SvgjsLinearGradient1034)"></path><path d="M543 900L1443 0L2176.5 0L1276.5 900z" fill="url(#SvgjsLinearGradient1034)"></path><path d="M1593 900L693 0L235.5 0L1135.5 900z" fill="url(#SvgjsLinearGradient1035)"></path><path d="M973 900L73 0L-597.5 0L302.5 900z" fill="url(#SvgjsLinearGradient1035)"></path><path d="M827.1815676232233 900L1600 127.18156762322326L1600 900z" fill="url(#SvgjsLinearGradient1034)"></path><path d="M0 900L772.8184323767767 900L 0 127.18156762322326z" fill="url(#SvgjsLinearGradient1035)"></path></g><defs><mask id="SvgjsMask1033"><rect width="1600" height="900" fill="#ffffff"></rect></mask><linearGradient x1="0%" y1="100%" x2="100%" y2="0%" id="SvgjsLinearGradient1034"><stop stop-color="rgba(0, 215, 125, 0.2)" offset="0"></stop><stop stop-opacity="0" stop-color="rgba(0, 215, 125, 0.2)" offset="0.66"></stop></linearGradient><linearGradient x1="100%" y1="100%" x2="0%" y2="0%" id="SvgjsLinearGradient1035"><stop stop-color="rgba(0, 215, 125, 0.2)" offset="0"></stop><stop stop-opacity="0" stop-color="rgba(0, 215, 125, 0.2)" offset="0.66"></stop></linearGradient></defs></svg>